<svg xmlns="http://www.w3.org/2000/svg" version="1.1" xmlns:xlink="http://www.w3.org/1999/xlink" width="512" height="512" x="0" y="0" viewBox="0 0 512 512" style="enable-background:new 0 0 512 512" xml:space="preserve" class=""><g><path d="M92.221 65.584a6.988 6.988 0 0 1-6.988 6.988h-.311a6.988 6.988 0 1 1 0-13.976h.311a6.988 6.988 0 0 1 6.988 6.988zm288.685-6.988H189.6a6.988 6.988 0 1 0 0 13.976h191.307a6.988 6.988 0 1 0-.001-13.976zm-273.889 0h-.311a6.988 6.988 0 1 0 0 13.976h.311a6.988 6.988 0 1 0 0-13.976zm21.784 0h-.311a6.988 6.988 0 1 0 0 13.976h.311a6.988 6.988 0 1 0 0-13.976zM511.5 341.313c0 59.67-48.558 108.215-108.244 108.215-29.797 0-56.82-12.107-76.409-31.658h-31.636v50.5h37.656a6.988 6.988 0 1 1 0 13.976h-199.88a6.988 6.988 0 1 1 0-13.976h37.628v-50.5H7.488A6.988 6.988 0 0 1 .5 410.882v-293.75a6.988 6.988 0 0 1 6.988-6.988h29.819V36.643a6.988 6.988 0 0 1 6.988-6.988H421.56a6.988 6.988 0 0 1 6.988 6.988v73.501h29.819a6.988 6.988 0 0 1 6.988 6.988v135.575c27.885 19.6 46.145 52.009 46.145 88.606zm-82.951-217.194v111.942a107.441 107.441 0 0 1 22.831 8.314V124.119zM403.256 233.07c3.821 0 7.596.202 11.316.59V101.514H51.284v223.163h245.035c8.024-51.816 52.922-91.607 106.937-91.607zM51.284 87.539h363.288V43.63H51.284zm-36.807 36.58v243.335h283.764a108.035 108.035 0 0 1-3.166-28.801H44.296a6.988 6.988 0 0 1-6.988-6.988V124.119zm0 279.774h300.541a108.1 108.1 0 0 1-12.263-22.464H14.477zm266.758 13.976h-96.642v50.5h96.642zm216.288-76.556c0-51.979-42.288-94.267-94.267-94.267-51.963 0-94.239 42.288-94.239 94.267 0 51.963 42.275 94.239 94.239 94.239 51.979 0 94.267-42.276 94.267-94.239zm-125.509-33.855a6.989 6.989 0 0 0-9.883 0l-28.913 28.913a6.99 6.99 0 0 0 .003 9.885l28.913 28.886a6.966 6.966 0 0 0 4.939 2.044 6.987 6.987 0 0 0 4.939-11.931l-23.967-23.945 23.97-23.97a6.988 6.988 0 0 0-.001-9.882zm101.311 28.913-28.914-28.913a6.99 6.99 0 0 0-9.883 9.883l23.971 23.969-23.968 23.945a6.987 6.987 0 0 0 4.939 11.931 6.964 6.964 0 0 0 4.939-2.044l28.914-28.886a6.989 6.989 0 0 0 .002-9.885zm-53.195-32.959a6.988 6.988 0 0 0-9.225 3.543l-28.036 63.005a6.99 6.99 0 0 0 6.38 9.831 6.989 6.989 0 0 0 6.388-4.149l28.036-63.005a6.988 6.988 0 0 0-3.543-9.225zm-99.965-121.744-24.756 12.595 24.758 12.606a6.989 6.989 0 0 1-.002 12.456l-24.775 12.604 24.773 12.595a6.988 6.988 0 0 1 .002 12.457l-84.083 42.777a6.977 6.977 0 0 1-6.338 0l-84.083-42.777a6.989 6.989 0 0 1 .004-12.458l24.78-12.589-24.784-12.609a6.988 6.988 0 0 1 0-12.456l24.766-12.6-24.766-12.6a6.99 6.99 0 0 1 0-12.456l84.083-42.777a6.98 6.98 0 0 1 6.337 0l84.083 42.777a6.986 6.986 0 0 1 .001 12.455zm-40.188 58.102-43.895 22.331a6.977 6.977 0 0 1-6.338 0l-43.881-22.324-21.612 10.98 68.662 34.932 68.667-34.934zm.025-37.669-43.919 22.344a6.977 6.977 0 0 1-6.338 0l-43.906-22.337-21.597 10.988 68.672 34.937 68.677-34.939zm21.583-26.661-68.671-34.936-68.671 34.936 24.311 12.368c.313.13.615.286.906.461l43.454 22.107 43.607-22.185c.203-.116.409-.222.622-.316z" fill="#800f81" opacity="1" data-original="#000000" class=""></path></g></svg>