<svg width="40" height="48" viewBox="0 0 40 48" fill="none" xmlns="http://www.w3.org/2000/svg">
<g id="Apple" clip-path="url(#clip0_533_22990)">
<path id="Vector" fill-rule="evenodd" clip-rule="evenodd" d="M21.7818 4.13198C24.964 0.0233883 29.3871 0 29.3871 0C29.3871 0 30.0474 3.8669 26.8812 7.58568C23.5081 11.5618 19.6737 10.9069 19.6737 10.9069C19.6737 10.9069 18.9497 7.78058 21.7818 4.13198Z" fill="white" fill-opacity="0.8"/>
<path id="Vector_2" fill-rule="evenodd" clip-rule="evenodd" d="M20.0791 13.6209C21.718 13.6209 24.7568 11.4146 28.7106 11.4146C35.5203 11.4146 38.1933 16.1624 38.1933 16.1624C38.1933 16.1624 32.9587 18.7897 32.9587 25.1514C32.9587 32.3317 39.482 34.8109 39.482 34.8109C39.482 34.8109 34.9237 47.3939 28.7584 47.3939C25.9263 47.3939 23.7306 45.5228 20.7473 45.5228C17.7085 45.5228 14.6934 47.4641 12.7285 47.4641C7.10406 47.4562 0 35.5281 0 25.931C0 16.4898 6.0142 11.5393 11.6544 11.5393C15.3219 11.547 18.1699 13.6209 20.0791 13.6209Z" fill="white" fill-opacity="0.8"/>
</g>
<defs>
<clipPath id="clip0_533_22990">
<rect width="40" height="48" fill="white"/>
</clipPath>
</defs>
</svg>
