<svg width="48" height="48" viewBox="0 0 48 48" fill="none" xmlns="http://www.w3.org/2000/svg">
<g id="Google">
<path id="Vector" fill-rule="evenodd" clip-rule="evenodd" d="M46.0002 24.4902C46.0002 22.6802 45.8502 21.3602 45.5282 19.9902H24.4482V28.1562H36.8202C36.5722 30.1842 35.2262 33.2402 32.2322 35.2942L32.1902 35.5662L38.8542 40.6262L39.3142 40.6702C43.5582 36.8342 46.0002 31.1862 46.0002 24.4902Z" fill="white" fill-opacity="0.8"/>
<path id="Vector_2" fill-rule="evenodd" clip-rule="evenodd" d="M24.4496 46.0001C30.5096 46.0001 35.5976 44.0441 39.3156 40.6701L32.2316 35.2941C30.3356 36.5901 27.7916 37.4941 24.4496 37.4941C21.6325 37.4944 18.886 36.6127 16.5954 34.9728C14.3048 33.3329 12.5851 31.017 11.6776 28.3501L11.4136 28.3721L4.48355 33.6281L4.39355 33.8761C8.08555 41.0621 15.6696 46.0001 24.4496 46.0001Z" fill="white" fill-opacity="0.8"/>
<path id="Vector_3" fill-rule="evenodd" clip-rule="evenodd" d="M11.68 28.3501C11.1881 26.9522 10.9332 25.482 10.926 24.0001C10.926 22.4841 11.202 21.0181 11.648 19.6501L11.636 19.3561L4.62 14.0161L4.39 14.1241C2.82159 17.1801 2.00238 20.5652 2 24.0001C2 27.5441 2.872 30.8941 4.394 33.8761L11.68 28.3501Z" fill="white" fill-opacity="0.8"/>
<path id="Vector_4" fill-rule="evenodd" clip-rule="evenodd" d="M24.4496 10.506C28.6656 10.506 31.5076 12.29 33.1296 13.782L39.4636 7.72C35.5736 4.176 30.5096 2 24.4496 2C15.6676 2 8.08555 6.938 4.39355 14.124L11.6536 19.65C12.5689 16.9833 14.2939 14.6689 16.5878 13.0297C18.8817 11.3904 21.6301 10.5082 24.4496 10.506Z" fill="white" fill-opacity="0.8"/>
</g>
</svg>
