<svg width="48" height="20" viewBox="0 0 48 20" fill="none" xmlns="http://www.w3.org/2000/svg">
<g id="IBM" clip-path="url(#clip0_533_23011)">
<path id="Vector" d="M48.0007 1.38314H40.0093L40.5216 0H48.0007V1.38314Z" fill="white" fill-opacity="0.8"/>
<path id="Vector_2" d="M26.6899 0H34.1179L34.5789 1.38314H26.6899V0Z" fill="white" fill-opacity="0.8"/>
<path id="Vector_3" d="M20.7984 0C22.0279 0.102455 23.1036 0.563499 23.9745 1.38314H10.5017V0H20.7984Z" fill="white" fill-opacity="0.8"/>
<path id="Vector_4" d="M9.32339 0H0V1.38314H9.32339V0Z" fill="white" fill-opacity="0.8"/>
<path id="Vector_5" d="M47.9995 3.94453H39.0859L39.547 2.5614H47.9483V3.94453H47.9995Z" fill="white" fill-opacity="0.8"/>
<path id="Vector_6" d="M35.5523 3.94434H26.6899V2.61243H35.04L35.5523 3.94434Z" fill="white" fill-opacity="0.8"/>
<path id="Vector_7" d="M25.0503 2.61243C25.204 3.07347 25.4601 3.43207 25.4601 3.99556H10.553V2.61243H25.0503Z" fill="white" fill-opacity="0.8"/>
<path id="Vector_8" d="M9.32339 2.61243H0V3.99556H9.32339V2.61243Z" fill="white" fill-opacity="0.8"/>
<path id="Vector_9" d="M38.2161 6.55687L38.6771 5.17371H45.3879V6.55687H38.2161Z" fill="white" fill-opacity="0.8"/>
<path id="Vector_10" d="M35.9616 5.17371L36.4739 6.55687H29.3533V5.17371H35.9616Z" fill="white" fill-opacity="0.8"/>
<path id="Vector_11" d="M25.5619 5.17371C25.5619 5.63474 25.5106 6.14702 25.357 6.55687H21.2588V5.17371H25.5619Z" fill="white" fill-opacity="0.8"/>
<path id="Vector_12" d="M6.60801 5.17371H2.6123V6.55687H6.60801V5.17371Z" fill="white" fill-opacity="0.8"/>
<path id="Vector_13" d="M17.264 5.17371H13.2683V6.55687H17.264V5.17371Z" fill="white" fill-opacity="0.8"/>
<path id="Vector_14" d="M33.2978 8.04259V9.0671H29.3533V7.68396H36.8837L37.3447 8.96466L37.8058 7.68396H45.3874V9.0671H41.4429V8.04259L41.0844 9.0671H33.6564L33.2978 8.04259Z" fill="white" fill-opacity="0.8"/>
<path id="Vector_15" d="M13.2683 7.73511H24.7944C24.5383 8.19612 24.0773 8.75962 23.6674 9.11825H13.3195C13.2683 9.06698 13.2683 7.73511 13.2683 7.73511Z" fill="white" fill-opacity="0.8"/>
<path id="Vector_16" d="M6.60801 7.73511H2.6123V9.11825H6.60801V7.73511Z" fill="white" fill-opacity="0.8"/>
<path id="Vector_17" d="M45.3877 10.2964H41.4431V11.6795H45.3877V10.2964Z" fill="white" fill-opacity="0.8"/>
<path id="Vector_18" d="M33.2978 10.2964H29.3533V11.6795H33.2978V10.2964Z" fill="white" fill-opacity="0.8"/>
<path id="Vector_19" d="M40.6748 10.2964L40.2137 11.6795H34.63L34.1177 10.2964H40.6748Z" fill="white" fill-opacity="0.8"/>
<path id="Vector_20" d="M13.2683 10.2964H23.6162C24.0773 10.7062 24.5383 11.1672 24.8457 11.6795H13.2683V10.2964Z" fill="white" fill-opacity="0.8"/>
<path id="Vector_21" d="M6.60801 11.6795V10.2964H2.6123V11.6795H6.60801Z" fill="white" fill-opacity="0.8"/>
<path id="Vector_22" d="M45.3877 12.9088H41.4431V14.292H45.3877V12.9088Z" fill="white" fill-opacity="0.8"/>
<path id="Vector_23" d="M33.2978 12.9088H29.3533V14.292H33.2978V12.9088Z" fill="white" fill-opacity="0.8"/>
<path id="Vector_24" d="M39.2406 14.292C39.2406 14.292 39.7017 12.9088 39.7529 12.9088H34.9888L35.5011 14.292H39.2406Z" fill="white" fill-opacity="0.8"/>
<path id="Vector_25" d="M13.2683 14.2409V12.8578H17.3152V14.2409H13.2683Z" fill="white" fill-opacity="0.8"/>
<path id="Vector_26" d="M25.4088 12.9088C25.6137 13.3186 25.6137 13.8309 25.6649 14.292H21.3618V12.9088H25.4088Z" fill="white" fill-opacity="0.8"/>
<path id="Vector_27" d="M6.60801 12.9088H2.6123V14.292H6.60801V12.9088Z" fill="white" fill-opacity="0.8"/>
<path id="Vector_28" d="M48.0002 15.4191H41.4431V16.8022H48.0002V15.4191Z" fill="white" fill-opacity="0.8"/>
<path id="Vector_29" d="M33.247 15.4191H26.6899V16.8022H33.247V15.4191Z" fill="white" fill-opacity="0.8"/>
<path id="Vector_30" d="M38.369 16.8022H36.3712L35.8589 15.4191H38.8301L38.369 16.8022Z" fill="white" fill-opacity="0.8"/>
<path id="Vector_31" d="M0 15.4191V16.8022H9.32339V15.4191H0Z" fill="white" fill-opacity="0.8"/>
<path id="Vector_32" d="M25.5111 15.4191C25.4086 15.8801 25.3062 16.4436 24.9988 16.8022H24.8963H10.5527V15.4191H25.5111Z" fill="white" fill-opacity="0.8"/>
<path id="Vector_33" d="M37.4469 19.3634H37.2933L36.781 18.0315H37.9592L37.4469 19.3634Z" fill="white" fill-opacity="0.8"/>
<path id="Vector_34" d="M48.0002 18.0315H41.4431V19.4146H48.0002V18.0315Z" fill="white" fill-opacity="0.8"/>
<path id="Vector_35" d="M10.5527 19.3636V17.9805C10.5527 17.9805 24.0255 17.9805 24.0767 17.9805C23.1546 18.8513 21.9252 19.3124 20.5933 19.3636H10.5527Z" fill="white" fill-opacity="0.8"/>
<path id="Vector_36" d="M33.247 18.0315H26.6899V19.4146H33.247V18.0315Z" fill="white" fill-opacity="0.8"/>
<path id="Vector_37" d="M9.32339 18.0315V19.4146H0V18.0315H9.32339Z" fill="white" fill-opacity="0.8"/>
</g>
<defs>
<clipPath id="clip0_533_23011">
<rect width="48" height="19.5165" fill="white"/>
</clipPath>
</defs>
</svg>
