<svg width="48" height="48" viewBox="0 0 48 48" fill="none" xmlns="http://www.w3.org/2000/svg">
<g id="instagramLogo" clip-path="url(#clip0_533_22993)">
<g id="Cutting-Assets">
<g id="instagramLogo_2">
<g id="Group-3">
<mask id="mask0_533_22993" style="mask-type:alpha" maskUnits="userSpaceOnUse" x="0" y="0" width="48" height="48">
<g id="mask-2">
<path id="Vector" d="M0 0.0163574H47.9849V47.9955H0V0.0163574Z" fill="white"/>
</g>
</mask>
<g mask="url(#mask0_533_22993)">
<path id="Fill-1" fill-rule="evenodd" clip-rule="evenodd" d="M23.9925 0.0163574C17.4765 0.0163574 16.6594 0.0439765 14.1004 0.160738C11.5467 0.277215 9.80257 0.682834 8.27648 1.27598C6.69876 1.88902 5.36076 2.7094 4.02686 4.04321C2.69305 5.37712 1.87267 6.71512 1.25962 8.29283C0.666476 9.81893 0.260857 11.563 0.144381 14.1167C0.0276191 16.6758 0 17.4928 0 24.0088C0 30.5247 0.0276191 31.3418 0.144381 33.9008C0.260857 36.4545 0.666476 38.1986 1.25962 39.7247C1.87267 41.3024 2.69305 42.6404 4.02686 43.9744C5.36076 45.3082 6.69876 46.1285 8.27648 46.7417C9.80257 47.3347 11.5467 47.7404 14.1004 47.8568C16.6594 47.9736 17.4765 48.0012 23.9925 48.0012C30.5084 48.0012 31.3254 47.9736 33.8845 47.8568C36.4382 47.7404 38.1823 47.3347 39.7084 46.7417C41.2861 46.1285 42.6241 45.3082 43.958 43.9744C45.2918 42.6404 46.1122 41.3024 46.7253 39.7247C47.3184 38.1986 47.724 36.4545 47.8405 33.9008C47.9572 31.3418 47.9849 30.5247 47.9849 24.0088C47.9849 17.4928 47.9572 16.6758 47.8405 14.1167C47.724 11.563 47.3184 9.81893 46.7253 8.29283C46.1122 6.71512 45.2918 5.37712 43.958 4.04321C42.6241 2.7094 41.2861 1.88902 39.7084 1.27598C38.1823 0.682834 36.4382 0.277215 33.8845 0.160738C31.3254 0.0439765 30.5084 0.0163574 23.9925 0.0163574ZM23.9925 4.33931C30.3987 4.33931 31.1575 4.36379 33.6874 4.47921C36.0267 4.58588 37.297 4.97674 38.1425 5.30531C39.2624 5.74055 40.0616 6.26045 40.9011 7.10007C41.7408 7.9396 42.2607 8.73883 42.6959 9.85874C43.0245 10.7042 43.4153 11.9745 43.522 14.3138C43.6374 16.8437 43.6619 17.6025 43.6619 24.0088C43.6619 30.415 43.6374 31.1739 43.522 33.7038C43.4153 36.043 43.0245 37.3134 42.6959 38.1588C42.2607 39.2787 41.7408 40.078 40.9011 40.9175C40.0616 41.7571 39.2624 42.277 38.1425 42.7123C37.297 43.0408 36.0267 43.4317 33.6874 43.5384C31.1579 43.6538 30.3991 43.6783 23.9925 43.6783C17.5857 43.6783 16.827 43.6538 14.2974 43.5384C11.9582 43.4317 10.6878 43.0408 9.84238 42.7123C8.72248 42.277 7.92324 41.7571 7.08371 40.9175C6.24419 40.078 5.72419 39.2787 5.28895 38.1588C4.96038 37.3134 4.56952 36.043 4.46286 33.7038C4.34743 31.1739 4.32295 30.415 4.32295 24.0088C4.32295 17.6025 4.34743 16.8437 4.46286 14.3138C4.56952 11.9745 4.96038 10.7042 5.28895 9.85874C5.72419 8.73883 6.24409 7.9396 7.08371 7.10007C7.92324 6.26045 8.72248 5.74055 9.84238 5.30531C10.6878 4.97674 11.9582 4.58588 14.2974 4.47921C16.8273 4.36379 17.5862 4.33931 23.9925 4.33931Z" fill="white" fill-opacity="0.8"/>
</g>
</g>
<path id="Fill-4" fill-rule="evenodd" clip-rule="evenodd" d="M23.9943 32.0052C19.5774 32.0052 15.9968 28.4246 15.9968 24.0077C15.9968 19.5908 19.5774 16.0102 23.9943 16.0102C28.4112 16.0102 31.9917 19.5908 31.9917 24.0077C31.9917 28.4246 28.4112 32.0052 23.9943 32.0052ZM23.9943 11.6873C17.1898 11.6873 11.6738 17.2033 11.6738 24.0077C11.6738 30.8121 17.1898 36.3281 23.9943 36.3281C30.7987 36.3281 36.3147 30.8121 36.3147 24.0077C36.3147 17.2033 30.7987 11.6873 23.9943 11.6873Z" fill="white" fill-opacity="0.8"/>
<path id="Fill-5" fill-rule="evenodd" clip-rule="evenodd" d="M39.6771 11.2012C39.6771 12.7913 38.3881 14.0802 36.798 14.0802C35.208 14.0802 33.9189 12.7913 33.9189 11.2012C33.9189 9.61107 35.208 8.32202 36.798 8.32202C38.3881 8.32202 39.6771 9.61107 39.6771 11.2012Z" fill="white" fill-opacity="0.8"/>
</g>
</g>
</g>
<defs>
<clipPath id="clip0_533_22993">
<rect width="48" height="48" fill="white"/>
</clipPath>
</defs>
</svg>
