<svg width="48" height="48" viewBox="0 0 48 48" fill="none" xmlns="http://www.w3.org/2000/svg">
<g id="reddit">
<path id="Vector" d="M47.0372 24.3892C46.9364 21.6573 44.6502 19.5239 41.9186 19.6167C40.7083 19.6588 39.5568 20.1563 38.6827 20.991C34.8332 18.3602 30.3114 16.9184 25.6634 16.8172L27.8571 6.23477L35.0938 7.76105C35.2955 9.62451 36.9597 10.9736 38.8171 10.7713C40.6746 10.5689 42.0195 8.89938 41.8178 7.03592C41.6161 5.17235 39.9519 3.82322 38.0944 4.02559C37.0269 4.13516 36.0687 4.75917 35.5392 5.68667L27.2519 4.02559C26.6888 3.89912 26.1257 4.2533 25.9995 4.82662C25.9995 4.83507 25.9995 4.83507 25.9995 4.84352L23.5033 16.6148C18.7965 16.6907 14.2159 18.1411 10.3159 20.7887C8.33237 18.9168 5.2057 19.0096 3.33977 21.0079C1.47388 22.998 1.56634 26.1347 3.55836 28.0067C3.94497 28.3693 4.39036 28.6812 4.88632 28.9005C4.85265 29.3979 4.85265 29.8955 4.88632 30.393C4.88632 37.9903 13.7116 44.1711 24.596 44.1711C35.4804 44.1711 44.3056 37.9987 44.3056 30.393C44.3393 29.8955 44.3393 29.3979 44.3056 28.9005C46.0034 28.0488 47.0709 26.2949 47.0372 24.3892ZM13.2241 27.7874C13.2241 25.9155 14.7454 24.3892 16.6112 24.3892C18.4771 24.3892 19.9985 25.9155 19.9985 27.7874C19.9985 29.6593 18.4771 31.1856 16.6112 31.1856C14.7369 31.1687 13.2241 29.6593 13.2241 27.7874ZM32.8664 37.1134C30.4626 38.9264 27.5209 39.8539 24.5119 39.7274C21.5029 39.8539 18.5612 38.9264 16.1574 37.1134C15.838 36.7255 15.8968 36.1437 16.2835 35.8232C16.6197 35.5451 17.0987 35.5451 17.4433 35.8232C19.4774 37.3157 21.9569 38.0746 24.4783 37.9566C26.9998 38.0915 29.4877 37.3664 31.5469 35.8907C31.9167 35.5282 32.5218 35.5366 32.8833 35.9076C33.2447 36.2786 33.2362 36.8858 32.8664 37.2483V37.1134ZM32.2613 31.3036C30.3954 31.3036 28.8741 29.7775 28.8741 27.9054C28.8741 26.0335 30.3954 24.5074 32.2613 24.5074C34.1273 24.5074 35.6485 26.0335 35.6485 27.9054C35.7241 29.7775 34.2701 31.3542 32.4042 31.4301C32.3453 31.4301 32.2949 31.4301 32.2361 31.4301L32.2613 31.3036Z" fill="white" fill-opacity="0.8"/>
</g>
</svg>
