<svg width="48" height="48" viewBox="0 0 48 48" fill="none" xmlns="http://www.w3.org/2000/svg">
<g id="Spotify" clip-path="url(#clip0_533_23002)">
<path id="Subtract" fill-rule="evenodd" clip-rule="evenodd" d="M48 24C48 37.2548 37.2548 48 24 48C10.7452 48 0 37.2548 0 24C0 10.7452 10.7452 0 24 0C37.2548 0 48 10.7452 48 24ZM32.8323 35.2116C33.0904 35.3549 33.3485 35.441 33.6352 35.441C34.18 35.441 34.6962 35.1543 34.9829 34.6382C35.413 33.8926 35.1836 32.9464 34.4381 32.4876C23.9601 26.1783 12.0711 29.5528 11.1645 29.8102L11.1263 29.8209C10.2947 30.079 9.80728 30.9679 10.0653 31.7995C10.3234 32.6309 11.2123 33.1184 12.0438 32.8603C12.1585 32.803 23.37 29.5342 32.8323 35.2116ZM36.3593 28.9604C36.044 28.9604 35.7286 28.8743 35.4418 28.7023C23.5709 21.8779 11.5852 25.8349 11.4705 25.8923C10.4956 26.2364 9.43461 25.7202 9.09058 24.7453C8.74647 23.7704 9.26264 22.7094 10.2375 22.3653C10.7823 22.1646 23.9436 17.8062 37.277 25.4622C38.1658 25.9783 38.4813 27.1252 37.9651 28.0141C37.6497 28.6163 37.0189 28.9604 36.3593 28.9604ZM38.2514 21.3627C38.5955 21.5347 38.9396 21.6207 39.3123 21.6207C40.1439 21.6207 40.9467 21.1619 41.3482 20.4164C41.9216 19.2981 41.4915 17.9218 40.3733 17.3196C25.0336 9.27773 9.69399 13.9468 8.97942 14.1643L8.97546 14.1655C7.77114 14.5383 7.11164 15.8286 7.4844 17.0329C7.85716 18.2372 9.14752 18.8967 10.3517 18.524C10.4952 18.4666 24.574 14.1655 38.2514 21.3627Z" fill="white" fill-opacity="0.8"/>
</g>
<defs>
<clipPath id="clip0_533_23002">
<rect width="48" height="48" fill="white"/>
</clipPath>
</defs>
</svg>
